<?xml version="1.0" encoding="UTF-8"?>
<svg width="840px" height="151px" viewBox="0 0 840 151" version="1.1" xmlns="http://www.w3.org/2000/svg" xmlns:xlink="http://www.w3.org/1999/xlink">
    <!-- Generator: Sketch 53.2 (72643) - https://sketchapp.com -->
    <title>Fill 1</title>
    <desc>Created with Sketch.</desc>
    <g id="Page-1" stroke="none" stroke-width="1" fill="none" fill-rule="evenodd">
        <path d="M498.133,15.2 C498.133,6.2 504.532,-5.68434189e-14 513.332,-5.68434189e-14 C522.133,-5.68434189e-14 528.532,6.2 528.532,15.2 C528.532,24.2 522.133,30.399 513.332,30.399 C504.532,30.399 498.133,24.2 498.133,15.2 Z M454.532,15.2 C454.532,6.2 460.933,-5.68434189e-14 469.732,-5.68434189e-14 C478.532,-5.68434189e-14 484.933,6.2 484.933,15.2 C484.933,24.2 478.532,30.399 469.732,30.399 C460.933,30.399 454.532,24.2 454.532,15.2 Z M840,45.399 L840,71.8 C836.4,70 832.2,69 828.2,69 C813.2,69 804.4,76 804.4,93 L804.4,148.8 L780.2,148.8 L780.2,46.399 L799.4,46.399 L802.8,55.399 C809.8,48.8 818.4,44.6 830.2,44.6 C833.4,44.6 836.8,44.8 840,45.399 Z M360.167,98.399 C360.167,80.8 372.367,68.6 388.768,68.6 C405.167,68.6 417.367,80.8 417.367,98.399 C417.367,116 405.167,128.2 388.768,128.2 C372.367,128.2 360.167,116 360.167,98.399 Z M710.2,67 C724.8,67 734.2,74.399 736.4,86.8 L682,86.8 C685.8,75 696.6,67 710.2,67 Z M755.6,117 C742.8,124.8 728.2,128 713.6,128 C697,128 685.2,119.6 682,107 L760.2,107 C760.6,102.399 760.8,99.8 760.8,97 C760.8,65 740.8,44.6 709.8,44.6 C678.8,44.6 656.6,66.8 656.6,97.2 C656.6,129.2 678.8,150.6 711.8,150.6 C728.4,150.6 742,147.2 755.6,140.2 L755.6,117 Z M228,148.8 L183.8,96.6 L183.8,148.8 L159.6,148.8 L159.6,7.6 L183.8,7.6 L183.8,96.6 L225,46.399 L253.8,46.399 L211.8,94 L258,148.8 L228,148.8 Z M639.8,148.8 L639.8,89.399 C639.8,58.8 624.4,44.8 596.4,44.8 C585.4,44.8 573.4,49 565.8,57.6 C565.6,51 560,46 553.8,46 L528.8,46 L528.8,68.8 L544,68.8 L544,148.8 L568.2,148.8 L568.2,94.6 C568.2,78.6 577.8,68.399 593,68.399 C609.2,68.399 615.6,75.6 615.6,93.8 L615.6,148.8 L639.8,148.8 Z M441.767,126.2 L441.767,46.399 L421.366,46.399 L418.167,56.399 C410.567,48.8 399.768,44.6 387.567,44.6 C356.968,44.6 335.567,66.2 335.567,97.2 C335.567,129.2 356.367,150.6 387.167,150.6 C400.367,150.6 413.567,145.6 420.367,136 C420.567,142.8 425.767,148.8 432.566,148.8 C432.566,148.8 432.566,148.8 456.566,148.8 L456.566,126.2 L441.767,126.2 Z M328.4,45.399 L328.4,71.8 C324.8,70 320.6,69 316.6,69 C301.6,69 292.8,76 292.8,93 L292.8,148.8 L268.6,148.8 L268.6,46.399 L287.8,46.399 L291.2,55.399 C298.2,48.8 306.8,44.6 318.6,44.6 C321.8,44.6 325.2,44.8 328.4,45.399 Z M504.933,126 L504.933,60.8 C504.933,53 498.732,46.6 490.933,46.399 C490.933,46.399 491.332,46.399 465.933,46.399 L465.933,68.8 L480.732,68.8 L480.732,136.2 C480.732,143 485.933,148.8 492.732,148.8 L519.133,148.8 L519.133,126 L504.933,126 Z M110.8,7.6 L136.2,7.6 L136.2,89.399 C136.2,108.6 129.8,124.6 118,135.6 C107.4,145.2 92.4,150.6 76.2,150.6 C45.8,150.6 15.2,131.6 15.2,89.399 L15.2,30.399 L0,30.399 L0,7.8 L0.6,7.6 L25.8,7.6 C34.2,7.6 41,14.399 41,22.8 L41,89.399 C41,107.8 51.8,126.399 76.2,126.399 C93.4,126.399 110.8,114.8 110.8,89 L110.8,7.6 L110.8,7.6 Z" id="Fill-1" fill="#6FAA43"></path>
    </g>
</svg>